HIERARCHY
ROOT Hips
{
	OFFSET 0.000000 0.000000 0.000000
	CHANNELS 6 Xposition Yposition Zposition Xrotation Yrotation Zrotation
	JOINT LeftUpLeg_virtual
	{
		OFFSET 0.000000 0.000000 0.000000
		CHANNELS 3 Xrotation Yrotation Zrotation
		JOINT LeftUpLeg
		{
			OFFSET 13.026900 -6.336304 -1.092800
			CHANNELS 3 Xrotation Yrotation Zrotation
			JOINT LeftLeg
			{
				OFFSET 0.524474 -46.096886 9.782700
				CHANNELS 3 Xrotation Yrotation Zrotation
				JOINT LeftFoot
				{
					OFFSET -0.524474 -53.427422 -12.948200
					CHANNELS 3 Xrotation Yrotation Zrotation
					JOINT LeftToeBase
					{
						OFFSET 0.192200 -14.009700 16.364100
						CHANNELS 3 Xrotation Yrotation Zrotation
						JOINT LeftToe_End
						{
							OFFSET -1.784700 -0.561700 9.474800
							CHANNELS 3 Xrotation Yrotation Zrotation
							End Site
							{
								OFFSET 0 0 0
							}
						}
					}
				}
			}
		}
	}
	JOINT RightUpLeg_virtual
	{
		OFFSET 0.000000 0.000000 0.000000
		CHANNELS 3 Xrotation Yrotation Zrotation
		JOINT RightUpLeg
		{
			OFFSET -12.883000 -6.336304 -1.092800
			CHANNELS 3 Xrotation Yrotation Zrotation
			JOINT RightLeg
			{
				OFFSET -0.524587 -46.096825 9.782800
				CHANNELS 3 Xrotation Yrotation Zrotation
				JOINT RightFoot
				{
					OFFSET 0.524587 -53.427383 -12.948300
					CHANNELS 3 Xrotation Yrotation Zrotation
					JOINT RightToeBase
					{
						OFFSET -0.192200 -14.009700 16.364100
						CHANNELS 3 Xrotation Yrotation Zrotation
						JOINT RightToe_End
						{
							OFFSET 1.784700 -0.561700 9.474800
							CHANNELS 3 Xrotation Yrotation Zrotation
							End Site
							{
								OFFSET 0 0 0
							}
						}
					}
				}
			}
		}
	}
	JOINT Spine_virtual
	{
		OFFSET 0.000000 0.000000 0.000000
		CHANNELS 3 Xrotation Yrotation Zrotation
		JOINT Spine
		{
			OFFSET 0.072000 7.257294 -0.789700
			CHANNELS 3 Xrotation Yrotation Zrotation
			JOINT Spine1
			{
				OFFSET 0.000000 12.508769 -0.658067
				CHANNELS 3 Xrotation Yrotation Zrotation
				JOINT Spine1_split
				{
					OFFSET 0.000000 12.508769 -0.658067
					CHANNELS 3 Xrotation Yrotation Zrotation
					JOINT Spine2
					{
						OFFSET 0.000000 12.508769 -0.658067
						CHANNELS 3 Xrotation Yrotation Zrotation
						JOINT Neck_virtual
						{
							OFFSET 0.000000 0.000000 0.000000
							CHANNELS 3 Xrotation Yrotation Zrotation
							JOINT Neck
							{
								OFFSET 0.000000 14.033295 7.520400
								CHANNELS 3 Xrotation Yrotation Zrotation
								JOINT Head
								{
									OFFSET 0.000000 8.198502 5.703100
									CHANNELS 3 Xrotation Yrotation Zrotation
									JOINT HeadTop_End
									{
										OFFSET 0.000000 17.760803 13.332701
										CHANNELS 3 Xrotation Yrotation Zrotation
										End Site
										{
											OFFSET 0 0 0
										}
									}
								}
							}
						}
						JOINT LeftShoulder_virtual
						{
							OFFSET 0.000000 0.000000 0.000000
							CHANNELS 3 Xrotation Yrotation Zrotation
							JOINT LeftShoulder
							{
								OFFSET 6.292450 5.785301 -0.669000
								CHANNELS 3 Xrotation Yrotation Zrotation
								JOINT LeftShoulder_split
								{
									OFFSET 6.292450 5.785301 -0.669000
									CHANNELS 3 Xrotation Yrotation Zrotation
									JOINT LeftArm
									{
										OFFSET 13.907140 -6.093903 1.965100
										CHANNELS 3 Xrotation Yrotation Zrotation
										JOINT LeftForeArm
										{
											OFFSET 34.140198 0.000000 0.000000
											CHANNELS 3 Xrotation Yrotation Zrotation
											JOINT LeftHand
											{
												OFFSET 40.960209 0.000000 0.000000
												CHANNELS 3 Xrotation Yrotation Zrotation
												End Site
												{
													OFFSET 0 0 0
												}
											}
										}
									}
								}
							}
						}
						JOINT RightShoulder_virtual
						{
							OFFSET 0.000000 0.000000 0.000000
							CHANNELS 3 Xrotation Yrotation Zrotation
							JOINT RightShoulder
							{
								OFFSET -6.292450 5.785301 -0.669000
								CHANNELS 3 Xrotation Yrotation Zrotation
								JOINT RightShoulder_split
								{
									OFFSET -6.292450 5.785301 -0.669000
									CHANNELS 3 Xrotation Yrotation Zrotation
									JOINT RightArm
									{
										OFFSET -13.907140 -6.093903 1.965100
										CHANNELS 3 Xrotation Yrotation Zrotation
										JOINT RightForeArm
										{
											OFFSET -34.140198 0.000000 0.000000
											CHANNELS 3 Xrotation Yrotation Zrotation
											JOINT RightHand
											{
												OFFSET -40.960209 0.000000 0.000000
												CHANNELS 3 Xrotation Yrotation Zrotation
												End Site
												{
													OFFSET 0 0 0
												}
											}
										}
									}
								}
							}
						}
					}
				}
			}
		}
	}
}
MOTION
Frames: 6
Frame Time: 0.03333333
-1.916601 107.714989 -5.143740 0.000000 0.000000 0.000000 -24.368143 -10.501474 -1.524154 9.343276 22.738359 4.000148 37.401972 11.141294 -7.080560 -20.575303 26.786631 8.033394 -2.452316 -0.483770 -1.664913 0.000000 0.000000 0.000000 -23.444573 -9.512472 -1.779779 20.960324 -13.554902 -0.074284 22.887981 -8.034865 -3.019414 -17.294953 -22.235667 3.096923 -8.158763 -0.268105 0.438887 0.000000 0.000000 0.000000 -23.654127 -9.702360 -1.571202 10.742851 -4.410246 -1.191214 2.873867 -1.880625 0.173439 0.717480 2.610080 -0.006073 0.000000 0.000000 0.000000 2.777613 -2.031541 -0.081383 0.645724 0.968428 -2.705154 -5.069305 -1.782845 4.552774 0.000000 0.000000 0.000000 3.801244 -2.273955 0.216470 0.078539 -17.626900 -11.692895 0.819122 -0.900013 -0.298843 -19.200416 2.938556 -38.108511 2.903355 -64.744606 3.395101 0.000000 0.000000 0.000000 3.503232 -1.933012 0.146999 0.370198 13.004365 16.780682 0.327671 0.488889 -0.697664 -10.953466 -4.528577 62.769903 -0.469461 41.618989 1.736388 0.000000 0.000000 0.000000 
-1.975730 107.620232 -5.146898 0.000000 0.000000 0.000000 -24.280972 -10.972471 -1.614849 8.532958 22.250856 5.015860 38.717634 10.816809 -7.233996 -19.738924 26.171434 7.495663 -2.469873 -0.285165 -1.919445 0.000000 0.000000 0.000000 -23.342445 -9.696424 -1.803004 20.768532 -14.088715 0.127184 22.796552 -8.079303 -3.019023 -17.515648 -22.357379 3.110197 -8.043905 -0.233435 0.329998 0.000000 0.000000 0.000000 -23.757929 -10.209076 -1.841579 10.887659 -4.620105 -1.266779 2.787983 -1.938342 0.183387 0.727478 2.151584 0.018429 0.000000 0.000000 0.000000 2.919157 -2.044551 -0.039788 0.691497 0.973894 -2.636762 -5.099503 -1.856720 4.726079 0.000000 0.000000 0.000000 3.723554 -2.288703 0.234184 0.101201 -17.633197 -11.710385 0.718368 -1.182663 -0.081992 -19.251156 2.897902 -38.180399 2.935252 -64.762542 3.445766 0.000000 0.000000 0.000000 3.403772 -1.974969 0.172692 0.362185 12.871737 16.697767 0.433159 0.086025 -0.641563 -11.151237 -4.701515 62.848935 -0.528401 41.918251 1.752822 0.000000 0.000000 0.000000 
-2.215179 107.648254 -5.112680 0.000000 0.000000 0.000000 -24.209208 -11.955340 -2.243817 6.283891 21.503495 6.878289 41.322149 10.268021 -7.406793 -18.474280 24.533368 6.870676 -2.641369 -0.120411 -2.150828 0.000000 0.000000 0.000000 -23.374424 -10.310813 -2.313909 20.809433 -14.763116 0.538106 22.329053 -8.068246 -2.856722 -18.124733 -22.381804 2.771951 -7.164589 -0.203438 0.253115 0.000000 0.000000 0.000000 -23.827018 -11.293848 -2.590315 10.958534 -4.801331 -1.310492 2.706553 -1.996340 0.204489 0.716440 1.819259 0.084788 0.000000 0.000000 0.000000 3.051707 -2.059200 0.008172 0.702799 0.958341 -2.494564 -5.180054 -2.051792 5.076920 0.000000 0.000000 0.000000 3.658336 -2.296426 0.242224 0.144119 -17.569028 -11.571182 0.641852 -1.346939 -0.023283 -19.496101 2.841589 -38.257081 2.975946 -64.773361 3.560936 0.000000 0.000000 0.000000 3.306921 -2.026162 0.188644 0.378583 12.667494 16.482764 0.543121 -0.177656 -0.540996 -11.363521 -4.957417 62.931881 -0.595185 42.250614 1.798596 0.000000 0.000000 0.000000 
-2.421250 107.740585 -5.028078 0.000000 0.000000 0.000000 -24.219718 -13.324499 -3.307938 2.959759 20.438571 9.115489 44.498730 9.448181 -7.447465 -17.051251 21.901919 6.002377 -2.928448 -0.031047 -2.251380 0.000000 0.000000 0.000000 -23.572953 -11.388018 -3.234782 20.935621 -15.412848 0.973187 21.700913 -7.917303 -2.563230 -18.718659 -22.302584 2.368364 -5.952253 -0.174339 0.203652 0.000000 0.000000 0.000000 -23.903867 -12.871980 -3.688507 10.979985 -4.924225 -1.284838 2.648443 -2.029394 0.229529 0.714823 1.667626 0.129973 0.000000 0.000000 0.000000 3.130405 -2.070882 0.047521 0.682628 0.924063 -2.317467 -5.314689 -2.315800 5.501010 0.000000 0.000000 0.000000 3.599450 -2.295465 0.236865 0.200109 -17.443200 -11.295988 0.490509 -1.392003 -0.121878 -19.857465 2.824303 -38.316364 2.983484 -64.766640 3.679134 0.000000 0.000000 0.000000 3.230312 -2.068290 0.198731 0.404513 12.471598 16.211905 0.621410 -0.196836 -0.501346 -11.525947 -5.230602 63.003188 -0.637425 42.458969 1.845416 0.000000 0.000000 0.000000 
-2.525304 107.870186 -4.692678 0.000000 0.000000 0.000000 -24.336809 -14.918270 -4.587216 -0.735898 18.885840 11.080991 47.372030 8.365096 -7.153433 -15.636837 18.426011 4.587417 -3.329796 -0.031946 -2.098430 0.000000 0.000000 0.000000 -23.870210 -12.903980 -4.388047 20.931564 -15.830903 1.143898 21.058872 -7.395860 -2.214717 -18.792560 -22.049247 2.467752 -5.190447 -0.150279 0.165453 0.000000 0.000000 0.000000 -24.036001 -14.865856 -4.968707 10.996957 -4.991810 -1.205367 2.619277 -2.031755 0.249285 0.686581 1.598501 0.088854 0.000000 0.000000 0.000000 3.137564 -2.077767 0.071135 0.657414 0.902856 -2.153898 -5.477372 -2.565730 5.891929 0.000000 0.000000 0.000000 3.550263 -2.285210 0.222389 0.262678 -17.283626 -10.938177 0.278257 -1.360427 -0.353562 -20.216619 2.833669 -38.348203 2.948649 -64.796625 3.757072 0.000000 0.000000 0.000000 3.184852 -2.089712 0.199066 0.453718 12.316162 15.948287 0.639927 -0.058799 -0.540241 -11.629607 -5.470343 63.021172 -0.641611 42.478220 1.873419 0.000000 0.000000 0.000000 
-2.476453 107.995277 -4.089815 0.000000 0.000000 0.000000 -24.505039 -16.648759 -5.864101 -4.193296 16.879774 12.225319 49.320946 7.157566 -6.440234 -14.238101 14.515202 2.510265 -3.688484 -0.118024 -1.688025 0.000000 0.000000 0.000000 -24.158651 -14.753501 -5.532878 20.671291 -15.845938 0.908159 20.601227 -6.428863 -1.901090 -18.201897 -21.605982 3.167224 -5.073446 -0.126497 0.142783 0.000000 0.000000 0.000000 -24.265869 -17.083080 -6.236704 11.028876 -5.010015 -1.097080 2.622739 -2.009908 0.267681 0.637371 1.688589 0.043481 0.000000 0.000000 0.000000 3.083295 -2.078335 0.077887 0.648174 0.911854 -2.050952 -5.626968 -2.721602 6.148286 0.000000 0.000000 0.000000 3.523980 -2.271152 0.201628 0.321115 -17.129440 -10.579702 0.072366 -1.287177 -0.621785 -20.454736 2.846556 -38.353565 2.890030 -64.894344 3.775821 0.000000 0.000000 0.000000 3.171501 -2.085018 0.195182 0.533981 12.223692 15.748958 0.606088 0.161521 -0.602890 -11.682922 -5.656519 62.961135 -0.611127 42.417114 1.872143 0.000000 0.000000 0.000000 
